# xmcd CD database file
#
# Track frame offsets:
#	150
#	14089
#	29981
#	46863
#	60448
#	75247
#	95311
#	106665
#	120322
#	132004
#	144818
#	157752
#	170327
#	182739
#	194043
#	207635
#	219597
#	234442
#	251149
#	262143
#	277098
#	288922
#	298486
#
# Disc length: 4155 seconds
#
# Revision: 0
# Processed by: cddbd v1.4PL0 Copyright (c) Steve Scherf et al.
# Submitted via: CDex 1.51
#
DISCID=56103917
DTITLE=Various Artist - The Best Country in Town Disc 1
DYEAR=1900
DGENRE=Country
TTITLE0=Child
TTITLE1=Evergreen Tree
TTITLE2=The End of The World
TTITLE3=The Greenleaves of Summer
TTITLE4=Jambalaya
TTITLE5=The Happiest Girl In The Whole USA
TTITLE6=500 Miles
TTITLE7=Don t Cry Joni
TTITLE8=When A Child is Born
TTITLE9=Detroit City
TTITLE10=EI Condor Pasa
TTITLE11=Seven Lonely Days
TTITLE12=North to Alaska
TTITLE13=Crying In The Rain
TTITLE14=Stand By Your Man
TTITLE15=Lemon Tree
TTITLE16=He ll Have To Go
TTITLE17=Tom Dooley Kingston Trio
TTITLE18=You Cheatin Heart
TTITLE19=Puff
TTITLE20=Funny Face
TTITLE21=I ll Have To Say I Love You In A Song
TTITLE22=9999999 Tears
EXTD=
EXTT0=
EXTT1=
EXTT2=
EXTT3=
EXTT4=
EXTT5=
EXTT6=
EXTT7=
EXTT8=
EXTT9=
EXTT10=
EXTT11=
EXTT12=
EXTT13=
EXTT14=
EXTT15=
EXTT16=
EXTT17=
EXTT18=
EXTT19=
EXTT20=
EXTT21=
EXTT22=
PLAYORDER=
